<mxfile host="app.diagrams.net" agent="Mozilla/5.0 (Windows NT 10.0; Win64; x64) AppleWebKit/537.36 (KHTML, like Gecko) Chrome/128.0.0.0 Safari/537.36" version="24.7.12">
  <diagram id="C5RBs43oDa-KdzZeNtuy" name="Page-1">
    <mxGraphModel dx="836" dy="469" grid="1" gridSize="10" guides="1" tooltips="1" connect="1" arrows="1" fold="1" page="1" pageScale="1" pageWidth="827" pageHeight="1169" math="0" shadow="0">
      <root>
        <mxCell id="WIyWlLk6GJQsqaUBKTNV-0" />
        <mxCell id="WIyWlLk6GJQsqaUBKTNV-1" parent="WIyWlLk6GJQsqaUBKTNV-0" />
        <mxCell id="UZvlAIjIedc3bhgubWIj-16" style="edgeStyle=orthogonalEdgeStyle;rounded=0;orthogonalLoop=1;jettySize=auto;html=1;exitX=0.5;exitY=1;exitDx=0;exitDy=0;entryX=0.5;entryY=0;entryDx=0;entryDy=0;" edge="1" parent="WIyWlLk6GJQsqaUBKTNV-1" target="WIyWlLk6GJQsqaUBKTNV-6">
          <mxGeometry relative="1" as="geometry">
            <mxPoint x="215" y="80" as="sourcePoint" />
          </mxGeometry>
        </mxCell>
        <mxCell id="WIyWlLk6GJQsqaUBKTNV-6" value="&lt;font style=&quot;font-size: 10px;&quot;&gt;Masuk ke dalam Unity dan buat project 2D baru&lt;/font&gt;" style="rhombus;whiteSpace=wrap;html=1;shadow=0;fontFamily=Helvetica;fontSize=12;align=center;strokeWidth=1;spacing=6;spacingTop=-4;" parent="WIyWlLk6GJQsqaUBKTNV-1" vertex="1">
          <mxGeometry x="140" y="100" width="150" height="130" as="geometry" />
        </mxCell>
        <mxCell id="UZvlAIjIedc3bhgubWIj-9" style="edgeStyle=orthogonalEdgeStyle;rounded=0;orthogonalLoop=1;jettySize=auto;html=1;exitX=0.5;exitY=1;exitDx=0;exitDy=0;" edge="1" parent="WIyWlLk6GJQsqaUBKTNV-1">
          <mxGeometry relative="1" as="geometry">
            <mxPoint x="214.99500000000012" y="380" as="sourcePoint" />
            <mxPoint x="214.99500000000012" y="380" as="targetPoint" />
          </mxGeometry>
        </mxCell>
        <mxCell id="UZvlAIjIedc3bhgubWIj-10" style="edgeStyle=orthogonalEdgeStyle;rounded=0;orthogonalLoop=1;jettySize=auto;html=1;exitX=0.5;exitY=1;exitDx=0;exitDy=0;" edge="1" parent="WIyWlLk6GJQsqaUBKTNV-1">
          <mxGeometry relative="1" as="geometry">
            <mxPoint x="214.99500000000012" y="380" as="sourcePoint" />
            <mxPoint x="214.99500000000012" y="380" as="targetPoint" />
          </mxGeometry>
        </mxCell>
        <mxCell id="UZvlAIjIedc3bhgubWIj-12" value="&lt;div style=&quot;font-size: 11px;&quot;&gt;&lt;span style=&quot;background-color: initial;&quot;&gt;&lt;font style=&quot;font-size: 11px;&quot;&gt;1.Klik mouse kanan di bagian hierarcy&lt;/font&gt;&lt;/span&gt;&lt;/div&gt;&lt;div style=&quot;font-size: 11px;&quot;&gt;&lt;font style=&quot;font-size: 11px;&quot;&gt;2.klik 2D object,sprites lalu square atau bebas&lt;/font&gt;&lt;/div&gt;" style="text;html=1;align=center;verticalAlign=middle;whiteSpace=wrap;rounded=0;" vertex="1" parent="WIyWlLk6GJQsqaUBKTNV-1">
          <mxGeometry x="395" y="265" width="190" height="30" as="geometry" />
        </mxCell>
        <mxCell id="UZvlAIjIedc3bhgubWIj-24" style="edgeStyle=orthogonalEdgeStyle;rounded=0;orthogonalLoop=1;jettySize=auto;html=1;exitX=0.5;exitY=1;exitDx=0;exitDy=0;entryX=0.5;entryY=0;entryDx=0;entryDy=0;" edge="1" parent="WIyWlLk6GJQsqaUBKTNV-1" source="UZvlAIjIedc3bhgubWIj-13" target="UZvlAIjIedc3bhgubWIj-23">
          <mxGeometry relative="1" as="geometry" />
        </mxCell>
        <mxCell id="UZvlAIjIedc3bhgubWIj-13" value="&lt;font style=&quot;font-size: 10px;&quot;&gt;Tambahkan collider dan RigidBody2D&lt;/font&gt;" style="rhombus;whiteSpace=wrap;html=1;" vertex="1" parent="WIyWlLk6GJQsqaUBKTNV-1">
          <mxGeometry x="152.5" y="340" width="140" height="120" as="geometry" />
        </mxCell>
        <mxCell id="UZvlAIjIedc3bhgubWIj-15" value="1.Klik game object,lalu dibagian inspector click add component.&lt;div&gt;2.Cari komponen boxCollicer2D(tergantung bentuk objek) dan rigidBody2D dan tambahkan&lt;br&gt;&lt;div&gt;&lt;br&gt;&lt;/div&gt;&lt;/div&gt;" style="text;html=1;align=center;verticalAlign=middle;whiteSpace=wrap;rounded=0;" vertex="1" parent="WIyWlLk6GJQsqaUBKTNV-1">
          <mxGeometry x="420" y="360" width="260" height="80" as="geometry" />
        </mxCell>
        <mxCell id="UZvlAIjIedc3bhgubWIj-25" style="edgeStyle=orthogonalEdgeStyle;rounded=0;orthogonalLoop=1;jettySize=auto;html=1;exitX=0.5;exitY=1;exitDx=0;exitDy=0;entryX=0.5;entryY=0;entryDx=0;entryDy=0;" edge="1" parent="WIyWlLk6GJQsqaUBKTNV-1" source="UZvlAIjIedc3bhgubWIj-20" target="UZvlAIjIedc3bhgubWIj-13">
          <mxGeometry relative="1" as="geometry" />
        </mxCell>
        <mxCell id="UZvlAIjIedc3bhgubWIj-20" value="&lt;span style=&quot;font-size: 10px;&quot;&gt;Buat game object baru&amp;nbsp;&lt;/span&gt;" style="rounded=1;whiteSpace=wrap;html=1;" vertex="1" parent="WIyWlLk6GJQsqaUBKTNV-1">
          <mxGeometry x="155" y="250" width="135" height="60" as="geometry" />
        </mxCell>
        <mxCell id="UZvlAIjIedc3bhgubWIj-22" style="edgeStyle=orthogonalEdgeStyle;rounded=0;orthogonalLoop=1;jettySize=auto;html=1;exitX=0.5;exitY=1;exitDx=0;exitDy=0;entryX=0.443;entryY=0.034;entryDx=0;entryDy=0;entryPerimeter=0;" edge="1" parent="WIyWlLk6GJQsqaUBKTNV-1" source="WIyWlLk6GJQsqaUBKTNV-6" target="UZvlAIjIedc3bhgubWIj-20">
          <mxGeometry relative="1" as="geometry" />
        </mxCell>
        <mxCell id="UZvlAIjIedc3bhgubWIj-30" value="" style="edgeStyle=orthogonalEdgeStyle;rounded=0;orthogonalLoop=1;jettySize=auto;html=1;" edge="1" parent="WIyWlLk6GJQsqaUBKTNV-1" source="UZvlAIjIedc3bhgubWIj-23" target="UZvlAIjIedc3bhgubWIj-28">
          <mxGeometry relative="1" as="geometry" />
        </mxCell>
        <mxCell id="UZvlAIjIedc3bhgubWIj-23" value="&lt;span style=&quot;font-size: 10px;&quot;&gt;Tambahkan script C# ke game object&lt;/span&gt;" style="rounded=1;whiteSpace=wrap;html=1;" vertex="1" parent="WIyWlLk6GJQsqaUBKTNV-1">
          <mxGeometry x="160" y="490" width="130" height="60" as="geometry" />
        </mxCell>
        <mxCell id="UZvlAIjIedc3bhgubWIj-27" value="1.Click new script di add component dan beri nama&lt;div&gt;2.Setelah itu,masuk ke software VSCode&lt;/div&gt;" style="text;html=1;align=center;verticalAlign=middle;whiteSpace=wrap;rounded=0;" vertex="1" parent="WIyWlLk6GJQsqaUBKTNV-1">
          <mxGeometry x="440" y="485" width="180" height="70" as="geometry" />
        </mxCell>
        <mxCell id="UZvlAIjIedc3bhgubWIj-35" style="edgeStyle=orthogonalEdgeStyle;rounded=0;orthogonalLoop=1;jettySize=auto;html=1;exitX=0.5;exitY=1;exitDx=0;exitDy=0;entryX=0.5;entryY=0;entryDx=0;entryDy=0;" edge="1" parent="WIyWlLk6GJQsqaUBKTNV-1" source="UZvlAIjIedc3bhgubWIj-28" target="UZvlAIjIedc3bhgubWIj-31">
          <mxGeometry relative="1" as="geometry" />
        </mxCell>
        <mxCell id="UZvlAIjIedc3bhgubWIj-28" value="Gunakan metode input.getaxis(&quot;Horizontal&quot;)&lt;div&gt;dan transform.translate&lt;/div&gt;" style="rounded=1;whiteSpace=wrap;html=1;" vertex="1" parent="WIyWlLk6GJQsqaUBKTNV-1">
          <mxGeometry x="141.25" y="590" width="167.5" height="60" as="geometry" />
        </mxCell>
        <mxCell id="UZvlAIjIedc3bhgubWIj-29" value="1.Buat variable baru bertipe float&lt;div&gt;2.Di bagian void update(),ketik&amp;nbsp;&lt;/div&gt;&lt;div&gt;&quot;nama variable&quot; = input.getaxis(&quot;Horizontal&quot;);&lt;/div&gt;&lt;div&gt;transform.translate( &quot;nama variable&quot; , 0&amp;nbsp; , 0 );&lt;/div&gt;&lt;div&gt;3.Setelah itu save scriptnya.&lt;/div&gt;" style="text;html=1;align=center;verticalAlign=middle;whiteSpace=wrap;rounded=0;" vertex="1" parent="WIyWlLk6GJQsqaUBKTNV-1">
          <mxGeometry x="420" y="582.25" width="290" height="75.5" as="geometry" />
        </mxCell>
        <mxCell id="UZvlAIjIedc3bhgubWIj-31" value="Testing" style="rhombus;whiteSpace=wrap;html=1;" vertex="1" parent="WIyWlLk6GJQsqaUBKTNV-1">
          <mxGeometry x="182.5" y="670" width="80" height="80" as="geometry" />
        </mxCell>
        <mxCell id="UZvlAIjIedc3bhgubWIj-33" value="&lt;font style=&quot;font-size: 15px;&quot;&gt;&lt;b style=&quot;&quot;&gt;&lt;br&gt;&lt;font style=&quot;forced-color-adjust: none; color: rgb(0, 0, 0); font-family: Helvetica; font-style: normal; font-variant-ligatures: normal; font-variant-caps: normal; letter-spacing: normal; orphans: 2; text-align: center; text-indent: 0px; text-transform: none; widows: 2; word-spacing: 0px; -webkit-text-stroke-width: 0px; white-space: normal; background-color: rgb(251, 251, 251); text-decoration-thickness: initial; text-decoration-style: initial; text-decoration-color: initial; font-size: 15px;&quot;&gt;Langkah-langkah&lt;/font&gt;&lt;/b&gt;&lt;/font&gt;&lt;div style=&quot;forced-color-adjust: none; color: rgb(0, 0, 0); font-family: Helvetica; font-style: normal; font-variant-ligatures: normal; font-variant-caps: normal; letter-spacing: normal; orphans: 2; text-align: center; text-indent: 0px; text-transform: none; widows: 2; word-spacing: 0px; -webkit-text-stroke-width: 0px; white-space: normal; background-color: rgb(251, 251, 251); text-decoration-thickness: initial; text-decoration-style: initial; text-decoration-color: initial; font-size: 15px;&quot;&gt;&lt;font style=&quot;forced-color-adjust: none; font-size: 15px;&quot;&gt;&lt;b&gt;&amp;nbsp;menggerakkan menggerakkan objek 2D di unity menggunakan keyboard&lt;/b&gt;&lt;/font&gt;&lt;/div&gt;&lt;font style=&quot;font-size: 15px;&quot;&gt;&lt;b style=&quot;&quot;&gt;&lt;br&gt;&lt;/b&gt;&lt;/font&gt;" style="text;html=1;align=center;verticalAlign=middle;whiteSpace=wrap;rounded=0;" vertex="1" parent="WIyWlLk6GJQsqaUBKTNV-1">
          <mxGeometry x="55" y="30" width="340" height="30" as="geometry" />
        </mxCell>
        <mxCell id="UZvlAIjIedc3bhgubWIj-36" value="1.Kembali ke unity lalu click tombol play&lt;div&gt;2.Testing dengan meng-click tombol A untuk ke kiri dan D untuk ke kanan&lt;/div&gt;" style="text;html=1;align=center;verticalAlign=middle;whiteSpace=wrap;rounded=0;" vertex="1" parent="WIyWlLk6GJQsqaUBKTNV-1">
          <mxGeometry x="370" y="680" width="235" height="70" as="geometry" />
        </mxCell>
        <mxCell id="UZvlAIjIedc3bhgubWIj-38" value="" style="shape=flexArrow;endArrow=classic;html=1;rounded=0;" edge="1" parent="WIyWlLk6GJQsqaUBKTNV-1">
          <mxGeometry width="50" height="50" relative="1" as="geometry">
            <mxPoint x="279.9999999999998" y="709.47" as="sourcePoint" />
            <mxPoint x="357.5" y="709.47" as="targetPoint" />
            <Array as="points">
              <mxPoint x="377.5" y="709.47" />
            </Array>
          </mxGeometry>
        </mxCell>
        <mxCell id="UZvlAIjIedc3bhgubWIj-39" value="" style="shape=flexArrow;endArrow=classic;html=1;rounded=0;" edge="1" parent="WIyWlLk6GJQsqaUBKTNV-1">
          <mxGeometry width="50" height="50" relative="1" as="geometry">
            <mxPoint x="332.4999999999998" y="619.47" as="sourcePoint" />
            <mxPoint x="410" y="619.47" as="targetPoint" />
            <Array as="points">
              <mxPoint x="430" y="619.47" />
            </Array>
          </mxGeometry>
        </mxCell>
        <mxCell id="UZvlAIjIedc3bhgubWIj-40" value="" style="shape=flexArrow;endArrow=classic;html=1;rounded=0;" edge="1" parent="WIyWlLk6GJQsqaUBKTNV-1">
          <mxGeometry width="50" height="50" relative="1" as="geometry">
            <mxPoint x="342.4999999999998" y="519.47" as="sourcePoint" />
            <mxPoint x="420" y="519.47" as="targetPoint" />
            <Array as="points">
              <mxPoint x="440" y="519.47" />
            </Array>
          </mxGeometry>
        </mxCell>
        <mxCell id="UZvlAIjIedc3bhgubWIj-41" value="" style="shape=flexArrow;endArrow=classic;html=1;rounded=0;" edge="1" parent="WIyWlLk6GJQsqaUBKTNV-1">
          <mxGeometry width="50" height="50" relative="1" as="geometry">
            <mxPoint x="322.4999999999998" y="399.47" as="sourcePoint" />
            <mxPoint x="400" y="399.47" as="targetPoint" />
            <Array as="points">
              <mxPoint x="420" y="399.47" />
            </Array>
          </mxGeometry>
        </mxCell>
        <mxCell id="UZvlAIjIedc3bhgubWIj-42" value="" style="shape=flexArrow;endArrow=classic;html=1;rounded=0;" edge="1" parent="WIyWlLk6GJQsqaUBKTNV-1">
          <mxGeometry width="50" height="50" relative="1" as="geometry">
            <mxPoint x="299.9999999999998" y="279.47" as="sourcePoint" />
            <mxPoint x="377.5" y="279.47" as="targetPoint" />
            <Array as="points">
              <mxPoint x="397.5" y="279.47" />
            </Array>
          </mxGeometry>
        </mxCell>
        <mxCell id="UZvlAIjIedc3bhgubWIj-43" value="1.Click new project dan pilih 2D (Built in render pipeline)&lt;div&gt;2.Setelah itu,beri nama dan click create project&lt;/div&gt;" style="text;html=1;align=center;verticalAlign=middle;whiteSpace=wrap;rounded=0;" vertex="1" parent="WIyWlLk6GJQsqaUBKTNV-1">
          <mxGeometry x="390" y="140" width="250" height="55" as="geometry" />
        </mxCell>
        <mxCell id="UZvlAIjIedc3bhgubWIj-44" value="" style="shape=flexArrow;endArrow=classic;html=1;rounded=0;" edge="1" parent="WIyWlLk6GJQsqaUBKTNV-1">
          <mxGeometry width="50" height="50" relative="1" as="geometry">
            <mxPoint x="315.9999999999998" y="164.47000000000003" as="sourcePoint" />
            <mxPoint x="393.5" y="164.47000000000003" as="targetPoint" />
            <Array as="points">
              <mxPoint x="413.5" y="164.47000000000003" />
            </Array>
          </mxGeometry>
        </mxCell>
      </root>
    </mxGraphModel>
  </diagram>
</mxfile>
